<svg xmlns="http://www.w3.org/2000/svg" width="43" height="37" viewBox="0 0 43 37" fill="none"><path d="M33.6231 13.9957C33.6231 13.6418 33.7819 13.2229 33.9469 12.7805C34.6844 11.1552 34.3576 10.0447 32.878 8.99892C32.0503 8.40605 31.7908 7.94887 31.6625 6.96369C31.4533 5.20423 30.6257 4.38426 28.7841 4.19103C28.3138 4.10844 27.874 4.03765 27.5686 3.86658C26.6707 3.29583 26.1302 1.9567 24.9284 1.67206C23.7542 1.3535 22.5814 2.24575 21.5064 2.29736C20.4314 2.24722 19.2587 1.35349 18.0845 1.67206C16.8873 1.9567 16.3376 3.29436 15.4458 3.86658C13.2576 4.62168 11.7658 4.02143 11.3518 6.96959C11.2251 7.94443 10.964 8.41195 10.1363 8.99893C8.66586 10.0431 8.32229 11.1418 9.06744 12.7805C9.23236 13.2229 9.39117 13.6418 9.39117 13.9957C9.33925 15.034 8.41389 16.1652 8.74374 17.2993C9.03845 18.4556 10.4234 18.9865 11.0159 19.8478C11.4954 20.7681 11.2892 22.1942 12.1642 23.0157C13.0331 23.8725 14.4165 23.641 15.4457 24.1247C16.3436 24.6955 16.8841 26.0346 18.0843 26.3192C19.2708 26.6363 20.384 25.7559 21.5063 25.6939C22.6256 25.7544 23.7495 26.6393 24.9283 26.3192C26.1254 26.0346 26.6752 24.6969 27.5669 24.1247C28.0968 23.846 28.7916 23.8312 29.3871 23.6882C30.8973 23.4611 31.5081 22.3741 31.6592 21.0217C31.786 20.0484 32.0471 19.5779 32.8747 18.9924C34.3422 17.9512 34.6888 16.8466 33.9436 15.2109C33.7787 14.7684 33.6199 14.3496 33.6199 13.9956L33.6231 13.9957ZM30.3844 14.7862C30.9387 15.9617 30.6592 16.879 29.5842 17.6297C29.3521 17.8125 29.1139 18.0072 29.0101 18.1783C28.6879 18.8508 28.8268 19.8345 28.1733 20.4318C27.561 21.066 26.5302 20.9273 25.84 21.24C25.2246 21.6677 24.8246 22.5909 23.9527 22.7915C23.0869 23.0348 22.276 22.4184 21.5095 22.3609C20.888 22.3918 20.181 22.8682 19.4939 22.8446C18.4036 22.8903 17.8646 21.7547 17.179 21.24C16.4872 20.9288 15.4611 21.063 14.8457 20.4318C14.1921 19.8375 14.3281 18.8464 14.0089 18.1783C13.5661 17.5839 12.6102 17.1975 12.4025 16.3554C12.1506 15.5207 12.7888 14.7361 12.8484 13.9957C12.7919 13.2583 12.1505 12.4708 12.4025 11.6419C12.6148 10.788 13.5554 10.4164 14.0089 9.81315C14.3311 9.14065 14.1922 8.15694 14.8457 7.55962C15.458 6.92545 16.4887 7.06408 17.179 6.75143C17.7943 6.32522 18.1944 5.40052 19.0663 5.19993C19.9321 4.95658 20.743 5.57305 21.5095 5.63056C22.2699 5.57599 23.096 4.95656 23.9466 5.19993C24.8261 5.4005 25.2231 6.3208 25.8401 6.75143C26.5318 7.06262 27.5579 6.92841 28.1733 7.55962C28.8269 8.15396 28.691 9.14503 29.0101 9.81315C29.4529 10.4075 30.4088 10.7939 30.6165 11.636C30.9234 12.8026 29.74 13.6787 30.3844 14.7862Z" fill="#1BA672"></path><path d="M29.437 11.9432C29.376 11.7309 29.0828 11.4949 28.8018 11.2707C28.1101 10.8121 27.6611 10.0422 27.5924 9.24729C27.5313 8.89924 27.4641 8.54528 27.3114 8.39192C26.8075 8.04976 25.8242 8.14415 25.2286 7.7725C24.6102 7.46869 24.1995 6.58382 23.6345 6.33898C23.0222 6.28884 22.219 6.84928 21.5089 6.81092C20.7989 6.84926 19.9941 6.2859 19.3833 6.33898C18.8168 6.58675 18.4076 7.46869 17.7892 7.7725C17.1982 8.14268 16.2042 8.04682 15.7064 8.39192C15.3521 8.87862 15.4483 9.82691 15.065 10.4035C14.7505 10.9994 13.8343 11.3961 13.5808 11.9432C13.5289 12.5346 14.1092 13.3104 14.0694 13.9962C14.1091 14.682 13.5258 15.4592 13.5808 16.0491C13.8373 16.5962 14.7505 16.9915 15.065 17.5888C15.4483 18.164 15.3506 19.1152 15.7064 19.6004C16.2118 19.9426 17.1937 19.8482 17.7892 20.2198C18.4061 20.5236 18.8184 21.4085 19.3833 21.6534C19.9957 21.7035 20.7989 21.1431 21.5089 21.1814C22.219 21.1431 23.0237 21.7064 23.6345 21.6534C24.201 21.4056 24.6102 20.5236 25.2286 20.2198C25.8196 19.8497 26.8137 19.9455 27.3114 19.6004C27.6657 19.1122 27.568 18.1654 27.9528 17.5888C28.2673 16.993 29.1835 16.5962 29.437 16.0491C29.492 15.8544 29.3637 15.5182 29.2416 15.1937C28.8736 14.4681 28.8766 13.5242 29.2416 12.7986C29.3637 12.4742 29.492 12.1379 29.437 11.9432Z" fill="#1BA672"></path><path d="M29.7061 24.8257C29.2709 24.9437 28.5609 24.9879 28.173 25.1501C28.0692 25.2091 27.8127 25.51 27.6416 25.7047C26.5605 27.1765 24.7877 28.0659 22.7842 27.2621L24.7082 34.2056C24.7693 34.4239 24.9586 34.5891 25.1846 34.6304C25.4152 34.6746 25.6473 34.5847 25.7954 34.4003L27.8233 31.7397L30.9582 33.0671C31.1719 33.1555 31.4224 33.1201 31.5995 32.9727C31.7766 32.8252 31.856 32.5892 31.7949 32.3709L29.7061 24.8257Z" fill="#1BA672"></path><path d="M18.6289 27.5629C17.2516 27.641 15.9689 26.4995 15.3901 25.7223C15.2497 25.5571 14.9626 25.2209 14.8404 25.1501C14.4541 24.9938 13.7517 24.9377 13.3073 24.8315L11.2184 32.3709C11.0779 32.828 11.6063 33.272 12.0552 33.067L15.1901 31.7397L17.2179 34.4002C17.366 34.5861 17.5981 34.6745 17.8287 34.6303C18.0547 34.589 18.2441 34.4238 18.3051 34.2056L20.2292 27.262C19.7451 27.4287 19.1359 27.5703 18.6289 27.5629Z" fill="#1BA672"></path></svg>