<svg xmlns="http://www.w3.org/2000/svg" width="37" height="34" viewBox="0 0 37 34" fill="none"><path d="M36.2355 0.367316C31.3925 6.59187 33.0467 18.5169 28.942 22.4106C24.7465 26.3946 20.0647 23.3921 18.7986 20.305C16.3287 26.4302 19.8382 30.8159 21.1745 32.1947C21.2879 32.3112 21.3431 32.4738 21.3237 32.6379C21.3058 32.8004 21.2148 32.9461 21.0791 33.0335L20.5496 33.3771C20.3512 33.5074 20.0902 33.4844 19.9172 33.3188C18.7017 32.1211 17.7799 30.6442 17.2266 29.0093C14.19 24.151 10.8835 27.1184 7.68115 24.275C4.64451 21.5989 3.34255 16.3113 0.0791497 14.6749C0.0209835 14.6473 -0.0103408 14.5814 0.0030839 14.5155C0.0165071 14.451 0.0716928 14.4035 0.135827 14.402C8.18379 14.2241 13.5861 16.6993 16.6243 25.9391C16.5989 25.6186 16.5855 25.2873 16.5855 24.9438C16.5855 19.4875 21.4968 12.1264 25.6105 7.87504C26.2533 7.21101 26.1653 6.95182 25.5717 7.38889H25.5703C21.673 10.2659 18.617 14.187 16.7361 18.725C16.6959 18.837 16.6019 18.9198 16.4871 18.9428C16.3737 18.9658 16.2559 18.9259 16.1768 18.837C15.5862 18.199 14.572 16.6961 14.9494 14.2193C15.5355 10.3286 21.1749 1.80825 36.0448 0.00154191C36.1328 -0.00919314 36.2193 0.0368137 36.2611 0.118095C36.3028 0.197838 36.2924 0.297521 36.2357 0.366531L36.2355 0.367316Z" fill="#1BA672"></path></svg>