<svg xmlns="http://www.w3.org/2000/svg" width="33" height="33" viewBox="0 0 33 33" fill="none"><path d="M27.753 6.0925C24.123 5.80692 20.724 4.31557 18.15 1.84057L17.49 1.17423C17.226 0.92038 16.863 0.793457 16.5 0.793457C16.137 0.793457 15.774 0.92038 15.51 1.17423L14.85 1.84057C12.276 4.31557 8.87696 5.80692 5.24696 6.0925C4.52096 6.15596 3.95996 6.72711 3.95996 7.42519V11.2646C3.95996 19.3242 8.51396 26.8127 15.807 30.779C16.005 30.906 16.269 30.9377 16.5 30.9377C16.731 30.9377 16.962 30.8742 17.193 30.779C24.486 26.8127 29.04 19.3242 29.04 11.2646V7.42519C29.04 6.72711 28.479 6.15596 27.753 6.0925ZM22.539 13.2954L16.368 19.7367C16.104 19.9906 15.741 20.1492 15.378 20.181H15.345C14.982 20.181 14.619 20.054 14.355 19.8002L10.89 16.405C10.362 15.8973 10.362 15.0406 10.89 14.5329C11.418 14.0252 12.309 14.0252 12.837 14.5329L15.312 16.9127L20.493 11.4867C21.021 10.9473 21.879 10.9156 22.44 11.3915C23.001 11.8992 23.034 12.756 22.539 13.2954Z" fill="#1BA672"></path></svg>