<svg xmlns="http://www.w3.org/2000/svg" width="49" height="49" viewBox="0 0 49 49" fill="none"><circle cx="24.1204" cy="24.1204" r="23.6204" fill="#1BA672" stroke="white"></circle><path d="M13.6622 21.9533C13.1638 22.5066 13.1945 23.3718 13.7309 23.886C14.2672 24.4001 15.1059 24.3684 15.6043 23.8151L21.4745 17.2987C21.8264 16.9081 22.1204 16.5826 22.3749 16.3111L22.3749 35.2289C22.3749 35.9842 22.9684 36.5964 23.7005 36.5964C24.4326 36.5964 25.0261 35.9842 25.0261 35.2289L25.0261 16.2265C25.2985 16.5143 25.6169 16.8666 26.0061 17.2986L31.8044 23.7351C32.3028 24.2883 33.1415 24.32 33.6778 23.8059C34.2141 23.2917 34.2449 22.4265 33.7465 21.8732L27.8886 15.3706C27.1819 14.586 26.5606 13.8963 25.9899 13.4154C25.3735 12.8961 24.6526 12.476 23.7403 12.476C22.8281 12.476 22.1072 12.8961 21.4907 13.4155C20.92 13.8963 20.2988 14.586 19.5921 15.3706L13.6622 21.9533Z" fill="white"></path></svg>