<svg xmlns="http://www.w3.org/2000/svg" width="19" height="37" viewBox="0 0 19 37" fill="none"><path d="M5.72096 3.68586C5.72096 2.95687 5.93924 2.24424 6.3482 1.63811C6.75716 1.03197 7.33842 0.559545 8.0185 0.280571C8.69857 0.00159703 9.44691 -0.0713953 10.1689 0.0708244C10.8908 0.213044 11.554 0.564088 12.0745 1.07956C12.595 1.59504 12.9495 2.2518 13.0931 2.96678C13.2367 3.68177 13.163 4.42287 12.8813 5.09638C12.5996 5.76988 12.1226 6.34553 11.5105 6.75054C10.8985 7.15555 10.1789 7.37172 9.44278 7.37172C8.95387 7.37226 8.46965 7.2773 8.01785 7.09226C7.56605 6.90722 7.15554 6.63574 6.80983 6.29337C6.46411 5.951 6.18999 5.54446 6.00314 5.09702C5.8163 4.64959 5.72041 4.17005 5.72096 3.68586ZM18.8059 19.0836L15.4855 9.93525C15.3129 9.45191 14.9937 9.03325 14.5714 8.73668C14.1492 8.4401 13.6446 8.28013 13.127 8.27869H5.75859C5.24093 8.28013 4.73639 8.4401 4.31414 8.73668C3.89189 9.03325 3.5726 9.45191 3.40005 9.93525L0.0796849 19.0836C0.0115726 19.275 -0.0133298 19.4788 0.0067339 19.6807C0.0267976 19.8827 0.0913389 20.0778 0.195808 20.2523C0.300277 20.4268 0.442131 20.5766 0.611371 20.6909C0.780611 20.8053 0.973117 20.8815 1.17532 20.9141C1.51551 20.9558 1.85965 20.8778 2.14776 20.6939C2.43587 20.51 2.64966 20.2318 2.75187 19.9078L5.75859 12.242C5.78892 12.1642 5.84227 12.0972 5.91167 12.0499C5.98106 12.0027 6.06326 11.9772 6.1475 11.977H6.18514C6.25329 11.9765 6.32053 11.9925 6.381 12.0237C6.44148 12.0548 6.49335 12.1001 6.5321 12.1556C6.57085 12.2112 6.59531 12.2752 6.60335 12.3422C6.61139 12.4093 6.60277 12.4772 6.57823 12.5402L1.27568 26.4015C1.25201 26.4643 1.24406 26.5318 1.25251 26.5982C1.26097 26.6647 1.28558 26.7281 1.32423 26.7831C1.36288 26.8381 1.41443 26.883 1.47444 26.9139C1.53445 26.9448 1.60113 26.9608 1.66878 26.9606H5.43241C5.54332 26.9606 5.64969 27.0042 5.72811 27.0819C5.80654 27.1596 5.85059 27.2649 5.85059 27.3747V35.4091C5.84168 35.7428 5.95033 36.0691 6.15788 36.3321C6.36543 36.595 6.65895 36.7783 6.98805 36.8503C7.191 36.8908 7.40051 36.8861 7.60141 36.8366C7.80232 36.7871 7.98959 36.694 8.14969 36.564C8.30978 36.4339 8.43869 36.2703 8.52708 36.0849C8.61547 35.8995 8.66114 35.697 8.66078 35.4919V27.3665C8.66078 27.2566 8.70483 27.1513 8.78326 27.0736C8.86168 26.996 8.96805 26.9523 9.07896 26.9523H9.83169C9.94259 26.9523 10.049 26.996 10.1274 27.0736C10.2058 27.1513 10.2499 27.2566 10.2499 27.3665V35.4091C10.241 35.7428 10.3496 36.0691 10.5572 36.3321C10.7647 36.595 11.0582 36.7783 11.3873 36.8503C11.5903 36.8908 11.7998 36.8861 12.0007 36.8366C12.2016 36.7871 12.3889 36.694 12.549 36.564C12.7091 36.4339 12.838 36.2703 12.9264 36.0849C13.0147 35.8995 13.0604 35.697 13.06 35.4919V27.3706C13.06 27.2608 13.1041 27.1554 13.1825 27.0778C13.261 27.0001 13.3673 26.9565 13.4782 26.9565H17.2419C17.3095 26.9567 17.3762 26.9406 17.4362 26.9097C17.4962 26.8788 17.5478 26.834 17.5864 26.779C17.6251 26.724 17.6497 26.6606 17.6581 26.5941C17.6666 26.5276 17.6586 26.4601 17.635 26.3974L12.3115 12.5402C12.287 12.4772 12.2783 12.4093 12.2864 12.3422C12.2944 12.2752 12.3189 12.2112 12.3576 12.1556C12.3964 12.1001 12.4483 12.0548 12.5087 12.0237C12.5692 11.9925 12.6364 11.9765 12.7046 11.977H12.7422C12.8265 11.9772 12.9087 12.0027 12.9781 12.0499C13.0475 12.0972 13.1008 12.1642 13.1311 12.242L16.1337 19.9078C16.2359 20.2318 16.4497 20.51 16.7378 20.6939C17.0259 20.8778 17.37 20.9558 17.7102 20.9141C17.9124 20.8815 18.1049 20.8053 18.2742 20.6909C18.4434 20.5766 18.5853 20.4268 18.6897 20.2523C18.7942 20.0778 18.8588 19.8827 18.8788 19.6807C18.8989 19.4788 18.874 19.275 18.8059 19.0836Z" fill="#1BA672"></path></svg>