<svg xmlns="http://www.w3.org/2000/svg" width="42" height="42" viewBox="0 0 42 42" fill="none"><path d="M21.2697 7.63114V4.84627C21.2697 4.40036 20.9079 4.03857 20.462 4.03857C20.0161 4.03857 19.6543 4.40036 19.6543 4.84627V7.63114C19.6543 8.07915 20.0161 8.43883 20.462 8.43883C20.9079 8.43883 21.2697 8.07915 21.2697 7.63114Z" fill="#1BA672"></path><path d="M11.0091 12.3549C11.3351 12.3549 11.6296 12.1572 11.7537 11.8564C11.8799 11.5556 11.8105 11.2065 11.5791 10.9772L9.61037 9.00845V9.00635C9.46103 8.84859 9.2528 8.75815 9.03406 8.75394C8.81741 8.75184 8.60707 8.83808 8.45354 8.99163C8.29999 9.14517 8.21376 9.35551 8.21586 9.57214C8.22006 9.79089 8.31051 9.99913 8.46826 10.1485L10.437 12.1172C10.5884 12.2707 10.7945 12.3549 11.0091 12.3549Z" fill="#1BA672"></path><path d="M3.5 21.0001C3.5 21.446 3.86178 21.8078 4.30769 21.8078H7.09466C7.54057 21.8078 7.90235 21.446 7.90235 21.0001C7.90235 20.5542 7.54057 20.1924 7.09466 20.1924H4.30769C3.86178 20.1924 3.5 20.5542 3.5 21.0001Z" fill="#1BA672"></path><path d="M36.6152 20.1924H33.8282C33.3823 20.1924 33.0205 20.5542 33.0205 21.0001C33.0205 21.446 33.3823 21.8078 33.8282 21.8078H36.6152C37.0611 21.8078 37.4229 21.446 37.4229 21.0001C37.4229 20.5542 37.0611 20.1924 36.6152 20.1924Z" fill="#1BA672"></path><path d="M32.4546 9.00665C32.1391 8.69114 31.628 8.69114 31.3125 9.00665L29.3438 10.9754V10.9775C29.1881 11.1268 29.0998 11.3329 29.0977 11.5496C29.0956 11.7662 29.1818 11.9745 29.3354 12.1259C29.4868 12.2795 29.695 12.3657 29.9117 12.3636C30.1283 12.3615 30.3345 12.2731 30.4859 12.1175L32.4546 10.1488C32.7701 9.83327 32.7701 9.32213 32.4546 9.00665Z" fill="#1BA672"></path><path d="M30.9619 22.0769C30.9619 18.3267 28.9616 14.8605 25.7119 12.9839C22.4622 11.1074 18.4615 11.1077 15.2119 12.9839C11.9623 14.8602 9.96191 18.3265 9.96191 22.0769V29.3462H30.9619V22.0769ZM20.4619 16.4231C17.3405 16.4273 14.8124 18.9555 14.8081 22.0769C14.8081 22.5229 14.4463 22.8846 14.0004 22.8846C13.5545 22.8846 13.1927 22.5229 13.1927 22.0769C13.199 18.0637 16.4487 14.8142 20.4619 14.8077C20.9078 14.8077 21.2696 15.1695 21.2696 15.6154C21.2696 16.0613 20.9078 16.4231 20.4619 16.4231Z" fill="#1BA672"></path><path d="M5.38462 30.9614H35.5385C36.5796 30.9614 37.4231 32.0026 37.4231 32.846V36.0768C37.4231 37.118 36.5796 37.9614 35.5385 37.9614H5.38462C4.34345 37.9614 3.5 36.9203 3.5 36.0768V32.846C3.5 31.8049 4.34345 30.9614 5.38462 30.9614Z" fill="#1BA672"></path></svg>